<?xml version="1.0" encoding="iso-8859-1"?>
<!-- Generator: Adobe Illustrator 19.0.0, SVG Export Plug-In . SVG Version: 6.00 Build 0)  -->
<svg version="1.1" id="Capa_1" xmlns="http://www.w3.org/2000/svg" xmlns:xlink="http://www.w3.org/1999/xlink" x="0px" y="0px"
	 viewBox="0 0 512 512" style="enable-background:new 0 0 512 512;" xml:space="preserve">
<g>
	<g>
		<path d="M512,182v-40c0-27.57-22.43-50-50-50h-4V50c0-27.57-22.43-50-50-50H86C62.841,0,44,18.841,44,42v62.253H34
			c-18.748,0-34,15.252-34,34s15.252,34,34,34h10v65.873H34c-18.748,0-34,15.252-34,34s15.252,34,34,34h10v65.873H34
			c-18.748,0-34,15.252-34,34s15.252,34,34,34h10V470c0,23.159,18.841,42,42,42h322c24.146,0,44.348-17.205,48.994-40H462
			c27.57,0,50-22.43,50-50v-40c0-16.339-7.878-30.87-20.035-40C504.122,332.87,512,318.339,512,302v-40
			c0-16.339-7.878-30.87-20.035-40C504.122,212.87,512,198.339,512,182z M44,419.999H34c-7.72,0-14-6.28-14-14c0-7.72,6.28-14,14-14
			h10V419.999z M44,286.126H34c-7.72,0-14-6.28-14-14c0-7.72,6.28-14,14-14h10V286.126z M44,152.253H34c-7.72,0-14-6.28-14-14
			c0-7.72,6.28-14,14-14h10V152.253z M438,74.027C429.637,67.735,419.248,64,408,64H297c-5.522,0-10,4.477-10,10s4.478,10,10,10h111
			c16.542,0,30,13.458,30,30v348c0,16.542-13.458,30-30,30H86c-12.131,0-22-9.869-22-22v-30.001h4.168c18.748,0,34-15.252,34-34
			c0-5.523-4.478-10-10-10c-5.522,0-10,4.477-10,10c0,7.72-6.28,14-14,14H64V306.126h4.168c18.748,0,34-15.252,34-34
			c0-5.523-4.478-10-10-10c-5.522,0-10,4.477-10,10c0,7.72-6.28,14-14,14H64V172.253h4.168c18.748,0,34-15.252,34-34
			c0-5.523-4.478-10-10-10c-5.522,0-10,4.477-10,10c0,7.72-6.28,14-14,14H64V77.758C70.403,81.712,77.938,84,86,84h32v340
			c0,5.523,4.478,10,10,10c5.522,0,10-4.477,10-10V84h76c5.522,0,10-4.477,10-10s-4.478-10-10-10H86c-12.131,0-22-9.869-22-22
			s9.869-22,22-22h322c16.542,0,30,13.458,30,30V74.027z M492,382v40c0,16.542-13.458,30-30,30h-4V352h4
			C478.542,352,492,365.458,492,382z M492,262v40c0,16.542-13.458,30-30,30h-4V232h4C478.542,232,492,245.458,492,262z M492,182
			c0,16.542-13.458,30-30,30h-4v-98v-2h4c16.542,0,30,13.458,30,30V182z"/>
	</g>
</g>
<g>
	<g>
		<path d="M389.943,396.589l-2.616-23.982c-2.037-18.677-15.785-33.693-34.21-37.364l-31.983-6.372
			c-2.142-0.427-3.696-2.322-3.696-4.505v-3.699l15.139-8.68c0.182-0.104,0.36-0.215,0.536-0.331
			c8.393-5.542,13.898-15.324,14.728-26.165c0.02-0.254,0.029-0.508,0.029-0.763v-46.21c0-1.402-0.291-2.735-0.812-3.945
			c4.144-6.341,6.563-13.907,6.563-22.031v-34.215c0-4.247-2.683-8.03-6.689-9.436c-4.008-1.406-8.467-0.127-11.119,3.189
			c-0.875,1.094-5.403,5.514-9.984,5.514h-70.836c-17.488,0-31.63,13.475-32.557,30.831c-0.036,0.349-0.055,0.703-0.055,1.062
			l0.013,18.736c0.001,7.581,1.986,13.519,5.738,17.686v38.82c0,0.254,0.01,0.509,0.029,0.763
			c0.832,10.879,6.304,20.66,14.638,26.164c0.179,0.118,0.361,0.231,0.548,0.337l15.229,8.706v3.667
			c0,2.184-1.555,4.079-3.696,4.505l-31.989,6.374c-18.421,3.67-32.168,18.681-34.208,37.353l-2.621,23.988
			c-0.309,2.825,0.599,5.647,2.495,7.762c1.896,2.116,4.604,3.324,7.445,3.324h184c2.841,0,5.548-1.208,7.444-3.323
			S390.251,399.412,389.943,396.589z M242.919,232.436c-0.15-0.353-0.524-1.507-0.524-4.22c0-0.002,0-0.004,0-0.007l-0.013-18.085
			c0.004-0.094,0.008-0.19,0.011-0.285c0.194-6.866,5.729-12.244,12.599-12.244h70.836c2.783,0,5.389-0.416,7.793-1.099v16.047
			c0,11.247-9.149,20.396-20.396,20.396H246.82C244.343,232.939,243.258,232.582,242.919,232.436z M253.601,294.819
			c-2.974-2.087-5.044-6.066-5.47-10.514v-31.366h65.093c5.165,0,10.101-0.985,14.646-2.759v34.124
			c-0.425,4.417-2.53,8.397-5.563,10.517l-29.594,16.968c-0.182,0.105-0.361,0.215-0.536,0.331c-2.693,1.778-5.66,1.779-8.354,0
			c-0.179-0.118-0.361-0.23-0.548-0.337L253.601,294.819z M207.152,387.671l1.409-12.9c1.088-9.953,8.416-17.955,18.235-19.912
			l31.989-6.374c9.107-1.815,16.214-8.595,18.759-17.163c3.37,1.408,6.91,2.13,10.455,2.13c3.548,0,7.092-0.723,10.465-2.134
			c2.544,8.57,9.652,15.352,18.76,17.167l31.983,6.372c9.821,1.957,17.15,9.961,18.235,19.917l1.406,12.897H207.152z"/>
	</g>
</g>
<g>
	<g>
		<path d="M263.069,66.93C261.21,65.07,258.63,64,256,64s-5.21,1.07-7.07,2.93S246,71.37,246,74s1.069,5.21,2.93,7.07
			c1.861,1.86,4.44,2.93,7.07,2.93s5.21-1.07,7.069-2.93C264.93,79.21,266,76.63,266,74S264.93,68.79,263.069,66.93z"/>
	</g>
</g>
<g>
	<g>
		<path d="M135.069,454.93C133.21,453.07,130.63,452,128,452s-5.21,1.07-7.07,2.93S118,459.37,118,462s1.069,5.21,2.93,7.07
			c1.861,1.86,4.44,2.93,7.07,2.93s5.21-1.07,7.069-2.93c1.86-1.86,2.931-4.44,2.931-7.07S136.93,456.79,135.069,454.93z"/>
	</g>
</g>
<g>
</g>
<g>
</g>
<g>
</g>
<g>
</g>
<g>
</g>
<g>
</g>
<g>
</g>
<g>
</g>
<g>
</g>
<g>
</g>
<g>
</g>
<g>
</g>
<g>
</g>
<g>
</g>
<g>
</g>
</svg>
